<?xml version="1.0" standalone="no"?><!DOCTYPE svg PUBLIC "-//W3C//DTD SVG 1.1//EN" "http://www.w3.org/Graphics/SVG/1.1/DTD/svg11.dtd"><svg t="1561632258480" class="icon" viewBox="0 0 1024 1024" version="1.1" xmlns="http://www.w3.org/2000/svg" p-id="2032" xmlns:xlink="http://www.w3.org/1999/xlink" width="200" height="200"><defs><style type="text/css"></style></defs><path d="M512 911.9999999c-113.55000029-2.59999981-207.9500001-41.52499981-283.20000029-116.79999961C153.55000039 719.9500001 114.5999999 625.55000029 112.0000001 512c2.59999981-113.55000029 41.52499981-207.9500001 116.79999961-283.20000029C304.0499999 153.55000039 398.44999971 114.5999999 512 112.0000001c113.55000029 2.59999981 207.9500001 41.52499981 283.20000029 116.79999961C870.44999961 304.0499999 909.4000001 398.44999971 911.9999999 512c-2.59999981 113.55000029-41.52499981 207.9500001-116.79999961 283.20000029C719.9500001 870.44999961 625.55000029 909.4000001 512 911.9999999z m247.8499998-152.1500001c65.99999971-65.99999971 99.8499999-148.1000001 102.17500049-246.70000019-2.32499971-100.90000019-36.1749999-182.99999971-102.17500049-248.99999941-65.99999971-65.99999971-148.1000001-99.8499999-246.70000019-102.17500049-100.90000019 2.32499971-182.99999971 36.1749999-248.99999941 102.17500049-65.99999971 65.99999971-99.8499999 148.1000001-102.17500049 246.70000019 2.32499971 100.90000019 36.1749999 182.99999971 102.17500049 248.99999941 65.7500001 65.7500001 147.47500019 99.60000029 247.8499998 102.1250004 100.37499961-2.5250001 182.09999971-36.37500029 247.8499998-102.12500039zM512 512h174.9999999a24.99999961 24.99999961 0 0 1 0 50.0000001h-199.99999951a24.99999961 24.99999961 0 0 1-25.00000049-25.00000049V287a24.99999961 24.99999961 0 0 1 50.0000001 0v225z" fill="#ffffff" p-id="2033"></path></svg>